:SAMPLES-PER-SECOND 30
:FULLY-SPECIFIED
:DEGREES
127
root  -10.4806 40.3952 4.85662 -174.532 -38.1685 175.588
RightUpLeg  -17.9329 4.88029 -5.25853
RightLeg  16.7225 8.75423 2.3214
RightFoot  -0.708351 0.0431949 -0.517551
RightToes  -2.9104e-010 0 -3.6325e-017
Spine  14.367 -0.863527 4.04052
Spine1  19.0714 -0.192621 -0.870571
HEad  -5.12392 19.9603 5.96697
LeftShoulder1  9.25151 -14.3803 -45.0835
LeftArm  -8.10906 8.82174 -28.2144
LeftForeArm  39.4688 -39.2358 -6.67924
LeftHand  -0.244104 0.0205437 5.32207
RightShoulder  4.3849 9.02728 29.01
RightArm  -30.9626 35.2823 7.15734
RightForeArm  20.5007 75.1494 49.391
RightHand  -0.4207 1.69343 -7.05724
LeftUpLeg  -1.57617 13.4123 8.87113
LeftLeg  9.19907 33.3755 -1.36196
LeftFoot  -0.98142 0.607001 -6.63801
LeftToes  -1.62803e-010 -2.57217e-011 -2.5681e-011
128
root  -10.4753 40.4012 4.86572 -174.63 -38.781 175.59
RightUpLeg  -17.7096 4.5747 -5.25819
RightLeg  16.6868 8.51507 2.24658
RightFoot  -0.749671 0.0398527 -0.492998
RightToes  -2.9104e-010 0 -3.6325e-017
Spine  14.2338 -0.791769 4.24953
Spine1  19.145 -0.0656507 -0.940038
HEad  -4.90151 19.1773 6.04143
LeftShoulder1  9.26774 -14.4103 -45.087
LeftArm  -7.63372 8.91879 -28.2412
LeftForeArm  39.1262 -38.247 -6.42448
LeftHand  -0.244104 0.0205437 5.32207
RightShoulder  4.42327 9.07119 29.1971
RightArm  -30.6422 34.5824 7.01442
RightForeArm  21.6272 75.3691 50.4177
RightHand  -0.439145 1.77914 -7.27834
LeftUpLeg  -1.56529 13.364 8.93095
LeftLeg  9.06198 32.8544 -1.50788
LeftFoot  -0.936743 0.604134 -6.583
LeftToes  -1.62803e-010 -2.57217e-011 -2.5681e-011
129
root  -10.4742 40.4085 4.88516 -174.729 -39.5076 175.633
RightUpLeg  -17.4678 4.23199 -5.23679
RightLeg  16.588 8.23758 2.12137
RightFoot  -0.780542 0.0346571 -0.435819
RightToes  -2.9104e-010 0 -3.6325e-017
Spine  14.0107 -0.718924 4.33651
Spine1  19.2959 -0.0284317 -0.815978
HEad  -4.47481 18.5149 6.14325
LeftShoulder1  9.25173 -14.3581 -45.143
LeftArm  -7.23253 8.91245 -28.2935
LeftForeArm  38.7498 -37.1162 -6.14075
LeftHand  -0.244104 0.0205437 5.32207
RightShoulder  4.45325 9.15849 29.1912
RightArm  -30.1842 33.9391 7.3997
RightForeArm  22.4285 75.5163 51.1298
RightHand  -0.445895 1.84015 -7.32977
LeftUpLeg  -1.65103 13.3884 9.0025
LeftLeg  9.00127 32.1594 -1.61501
LeftFoot  -0.903305 0.597172 -6.48364
LeftToes  -1.62803e-010 -2.57217e-011 -2.5681e-011
130
root  -10.479 40.4157 4.92119 -174.846 -40.3201 175.622
RightUpLeg  -17.1652 3.64231 -5.26398
RightLeg  16.4903 8.11973 2.04334
RightFoot  -0.825808 0.0269059 -0.352755
RightToes  -2.9104e-010 0 -3.6325e-017
Spine  13.9131 -0.655924 4.35239
Spine1  19.3566 -0.0224768 -0.647077
HEad  -4.05871 17.852 6.17908
LeftShoulder1  9.24235 -14.2984 -45.2525
LeftArm  -6.87751 8.94934 -28.2964
LeftForeArm  38.2975 -36.0012 -5.87381
LeftHand  -0.244104 0.0205437 5.32207
RightShoulder  4.48618 9.24721 29.2047
RightArm  -29.7898 33.3891 8.01151
RightForeArm  22.7975 75.571 51.3795
RightHand  -0.436408 1.78424 -7.22921
LeftUpLeg  -1.77458 13.3716 8.9615
LeftLeg  9.04482 31.408 -1.58194
LeftFoot  -0.895502 0.585536 -6.34173
LeftToes  -1.62803e-010 -2.57217e-011 -2.5681e-011
131
root  -10.4841 40.4186 4.9806 -174.965 -41.1894 175.571
RightUpLeg  -16.8587 2.78396 -5.3425
RightLeg  16.417 8.1722 2.04352
RightFoot  -0.882146 0.014427 -0.223092
RightToes  -2.9104e-010 0 -3.6325e-017
Spine  13.9316 -0.599302 4.4279
Spine1  19.3615 0.0364429 -0.603479
HEad  -3.82625 17.0181 5.99467
LeftShoulder1  9.25883 -14.2963 -45.3421
LeftArm  -6.46734 9.04483 -28.2308
LeftForeArm  37.734 -35.0554 -5.66338
LeftHand  -0.244104 0.0205437 5.32207
RightShoulder  4.53103 9.30185 29.4091
RightArm  -29.6509 32.9346 8.46753
RightForeArm  22.8504 75.5515 51.2285
RightHand  -0.435346 1.7962 -7.20101
LeftUpLeg  -2.00569 13.5005 8.81075
LeftLeg  9.29091 30.4401 -1.3618
LeftFoot  -0.952258 0.569761 -6.20182
LeftToes  -1.62803e-010 -2.57217e-011 -2.5681e-011
132
root  -10.4832 40.4176 5.06715 -175.073 -42.1663 175.559
RightUpLeg  -16.5958 1.78641 -5.41899
RightLeg  16.3192 8.22775 2.05003
RightFoot  -0.912647 -0.00372167 -0.0273761
RightToes  -2.9104e-010 0 -3.6325e-017
Spine  13.9941 -0.564141 4.53467
Spine1  19.3992 0.0899211 -0.588372
HEad  -3.74527 16.1097 5.62484
LeftShoulder1  9.25249 -14.3 -45.3
LeftArm  -6.1504 9.15221 -28.2603
LeftForeArm  37.2875 -34.3965 -5.52275
LeftHand  -0.244104 0.0205437 5.32207
RightShoulder  4.56805 9.33801 29.6016
RightArm  -29.6991 32.4465 8.79838
RightForeArm  23.0365 75.5618 51.2355
RightHand  -0.468944 2.05515 -7.49089
LeftUpLeg  -2.43301 14.0189 8.63782
LeftLeg  9.74873 28.9856 -1.02931
LeftFoot  -1.07464 0.550491 -6.05369
LeftToes  -1.62803e-010 -2.57217e-011 -2.5681e-011
133
root  -10.479 40.4171 5.1807 -175.173 -43.3665 175.589
RightUpLeg  -16.3337 0.629339 -5.49224
RightLeg  16.1621 8.22509 2.0237
RightFoot  -0.888393 -0.0221152 0.175465
RightToes  -2.9104e-010 0 -3.6325e-017
Spine  14.142 -0.564234 4.56782
Spine1  19.425 0.0407772 -0.412516
HEad  -3.81997 15.198 5.15612
LeftShoulder1  9.19444 -14.248 -45.1415
LeftArm  -6.05941 9.25272 -28.4795
LeftForeArm  37.2018 -34.0536 -5.44247
LeftHand  -0.244104 0.0205437 5.32207
RightShoulder  4.5746 9.36185 29.5861
RightArm  -29.7391 31.7134 9.00148
RightForeArm  24.0686 75.7434 52.1566
RightHand  -0.519512 2.37135 -7.96647
LeftUpLeg  -3.03101 14.8108 8.43043
LeftLeg  10.2764 27.0619 -0.685845
LeftFoot  -1.20191 0.521486 -5.79496
LeftToes  -1.62803e-010 -2.57217e-011 -2.5681e-011
134
root  -10.4785 40.4166 5.31848 -175.222 -44.9356 175.589
RightUpLeg  -16.0365 -0.876774 -5.63253
RightLeg  15.9779 8.21335 2.0102
RightFoot  -0.847618 -0.0390189 0.361841
RightToes  -2.9104e-010 0 -3.6325e-017
Spine  14.3625 -0.605638 4.53649
Spine1  19.4285 -0.138864 -0.0202685
HEad  -4.4519 14.0071 4.31633
LeftShoulder1  9.12743 -14.1607 -45.0298
LeftArm  -6.04421 9.31455 -28.7547
LeftForeArm  37.3824 -34.0362 -5.42825
LeftHand  -0.244104 0.0205437 5.32207
RightShoulder  4.54591 9.31124 29.5012
RightArm  -29.6997 30.6443 8.65696
RightForeArm  26.7706 76.1843 54.5803
RightHand  -0.541425 2.45166 -8.214
LeftUpLeg  -3.7896 15.5613 8.0794
LeftLeg  10.7787 24.8409 -0.337548
LeftFoot  -1.28391 0.481287 -5.38077
LeftToes  -1.62803e-010 -2.57217e-011 -2.5681e-011
135
root  -10.4824 40.4164 5.47804 -175.163 -46.9849 175.541
RightUpLeg  -15.7263 -2.75224 -5.879
RightLeg  15.7883 8.0906 2.01869
RightFoot  -0.858299 -0.0644297 0.63849
RightToes  -2.9104e-010 0 -3.6325e-017
Spine  14.5463 -0.707261 4.53092
Spine1  19.5172 -0.454816 0.561086
HEad  -6.13485 12.2172 2.69663
LeftShoulder1  9.0917 -14.0765 -45.0699
LeftArm  -6.01061 9.32761 -28.9438
LeftForeArm  37.6283 -34.4496 -5.51742
LeftHand  -0.244104 0.0205437 5.32207
RightShoulder  4.4791 9.12147 29.5056
RightArm  -29.5702 29.2612 7.42451
RightForeArm  31.8455 76.8844 59.1058
RightHand  -0.526809 2.33217 -8.11234
LeftUpLeg  -4.79268 16.1768 7.53493
LeftLeg  11.2887 22.3053 0.0533251
LeftFoot  -1.32169 0.439586 -4.92341
LeftToes  -1.62803e-010 -2.57217e-011 -2.5681e-011
136
root  -10.4865 40.4169 5.65824 -175.008 -49.4808 175.5
RightUpLeg  -15.407 -4.70039 -6.2033
RightLeg  15.5452 7.59724 1.9663
RightFoot  -0.914334 -0.105189 1.08416
RightToes  -2.9104e-010 0 -3.6325e-017
Spine  14.7219 -0.880159 4.61515
Spine1  19.6659 -0.882498 1.25374
HEad  -8.64775 9.96372 0.456868
LeftShoulder1  9.07362 -13.9969 -45.1893
LeftArm  -6.1539 9.40717 -29.0597
LeftForeArm  38.0398 -35.4224 -5.74022
LeftHand  -0.244104 0.0205437 5.32207
RightShoulder  4.37446 8.82535 29.5089
RightArm  -29.2411 27.4542 5.52031
RightForeArm  39.7193 77.7294 66.5707
RightHand  -0.515436 2.2367 -8.03486
LeftUpLeg  -6.03612 16.6364 6.85928
LeftLeg  11.788 19.5119 0.419605
LeftFoot  -1.31231 0.404034 -4.51451
LeftToes  -1.62803e-010 -2.57217e-011 -2.5681e-011
